{
	"nodes":[{
		"name":"ON-BOARD COMPANIES",
		"translation":[0.0,
		0.0,
		0.0],
		"rotation":[0.0,
		0.0,
		0.0,
		-1.0],
		"scale":[1.0,
		1.0,
		1.0],
		"children":[1,
		2,
		3,
		4]
	},
	{
		"name":"text",
		"translation":[1.0237102508544922,
		-0.028588922694325448,
		0.0],
		"rotation":[0.0,
		0.0,
		0.0,
		-1.0],
		"scale":[1.0,
		1.0,
		1.0],
		"mesh":0
	},
	{
		"name":"line",
		"translation":[0.9897472262382507,
		0.0026301199104636909,
		0.0],
		"rotation":[0.0,
		0.0,
		0.0,
		-1.0],
		"scale":[1.0,
		1.0,
		1.0],
		"mesh":1
	},
	{
		"name":"Tube",
		"translation":[-2.601370334625244,
		0.0,
		-7.330757285691077e-16],
		"rotation":[0.7071067690849304,
		0.0,
		0.0,
		-0.7071067690849304],
		"scale":[1.0,
		1.0,
		1.0],
		"mesh":2
	},
	{
		"name":"globe",
		"translation":[-2.601370334625244,
		0.0,
		0.0],
		"rotation":[0.0,
		0.0,
		0.0,
		-1.0],
		"scale":[1.0,
		1.0,
		1.0],
		"mesh":3
	}],
	"asset":{
		"version":"2.0",
		"generator":"Created using the official Cinema 4D glTF Exporter 1.000x284978"
	},
	"scenes":[{
		"nodes":[0]
	}],
	"meshes":[{
		"name":"text",
		"primitives":[{
			"indices":0,
			"attributes":{
				"POSITION":1,
				"NORMAL":2
			},
			"material":0
		}]
	},
	{
		"name":"line",
		"primitives":[{
			"indices":3,
			"attributes":{
				"POSITION":4,
				"NORMAL":5
			},
			"material":1
		}]
	},
	{
		"name":"Tube",
		"primitives":[{
			"indices":6,
			"attributes":{
				"POSITION":7,
				"NORMAL":8
			},
			"material":0
		}]
	},
	{
		"name":"globe",
		"primitives":[{
			"indices":9,
			"attributes":{
				"POSITION":10,
				"NORMAL":11
			},
			"material":1
		}]
	}],
	"accessors":[{
		"count":17964,
		"bufferView":0,
		"type":"SCALAR",
		"componentType":5123,
		"byteOffset":0,
		"min":[0],
		"max":[6116]
	},
	{
		"count":6117,
		"bufferView":1,
		"type":"VEC3",
		"componentType":5126,
		"byteOffset":0,
		"min":[-2.283742666244507,
		-1.1675302982330323,
		-0.06353789567947388],
		"max":[2.283742666244507,
		1.1675302982330323,
		0.06353789567947388]
	},
	{
		"count":6117,
		"bufferView":1,
		"type":"VEC3",
		"componentType":5126,
		"byteOffset":12,
		"min":[-1.0,
		-1.0,
		-1.0],
		"max":[1.0,
		1.0,
		1.0]
	},
	{
		"count":276,
		"bufferView":2,
		"type":"SCALAR",
		"componentType":5123,
		"byteOffset":0,
		"min":[0],
		"max":[95]
	},
	{
		"count":96,
		"bufferView":3,
		"type":"VEC3",
		"componentType":5126,
		"byteOffset":0,
		"min":[-2.2095189094543459,
		-0.08542202413082123,
		-0.05999999865889549],
		"max":[2.2095189094543459,
		0.08542202413082123,
		0.05999999865889549]
	},
	{
		"count":96,
		"bufferView":3,
		"type":"VEC3",
		"componentType":5126,
		"byteOffset":12,
		"min":[-0.9987671375274658,
		-0.9972222447395325,
		-1.0],
		"max":[0.9987671375274658,
		0.9972222447395325,
		1.0]
	},
	{
		"count":1728,
		"bufferView":4,
		"type":"SCALAR",
		"componentType":5123,
		"byteOffset":0,
		"min":[0],
		"max":[575]
	},
	{
		"count":576,
		"bufferView":5,
		"type":"VEC3",
		"componentType":5126,
		"byteOffset":0,
		"min":[-1.2013905048370362,
		-0.048959970474243167,
		-1.2013905048370362],
		"max":[1.2013905048370362,
		0.048959970474243167,
		1.2013905048370362]
	},
	{
		"count":576,
		"bufferView":5,
		"type":"VEC3",
		"componentType":5126,
		"byteOffset":12,
		"min":[-0.9998941421508789,
		-1.0,
		-0.9998941421508789],
		"max":[0.9998941421508789,
		1.0,
		0.9998941421508789]
	},
	{
		"count":8196,
		"bufferView":6,
		"type":"SCALAR",
		"componentType":5123,
		"byteOffset":0,
		"min":[0],
		"max":[2725]
	},
	{
		"count":2726,
		"bufferView":7,
		"type":"VEC3",
		"componentType":5126,
		"byteOffset":0,
		"min":[-1.0872355699539185,
		-1.0942820310592652,
		-1.090687870979309],
		"max":[0.9471545219421387,
		1.0852183103561402,
		1.0963349342346192]
	},
	{
		"count":2726,
		"bufferView":7,
		"type":"VEC3",
		"componentType":5126,
		"byteOffset":12,
		"min":[-0.9981836676597595,
		-0.9993636012077332,
		-0.9996030330657959],
		"max":[0.9979835152626038,
		0.999047040939331,
		0.9996189475059509]
	},
	{
		"count":401,
		"bufferView":8,
		"type":"SCALAR",
		"componentType":5126,
		"byteOffset":0,
		"min":[0.0],
		"max":[13.333333015441895]
	},
	{
		"count":401,
		"bufferView":8,
		"type":"VEC4",
		"componentType":5126,
		"byteOffset":1604,
		"min":[0.0,
		-0.9999939799308777,
		-7.270685387084086e-9,
		-1.0],
		"max":[7.380249744670664e-9,
		0.0,
		7.340250629539469e-9,
		0.9999619126319885]
	}],
	"bufferViews":[{
		"buffer":0,
		"byteOffset":0,
		"byteLength":35928,
		"target":34963
	},
	{
		"buffer":0,
		"byteOffset":35928,
		"byteLength":146808,
		"target":34962,
		"byteStride":24
	},
	{
		"buffer":1,
		"byteOffset":0,
		"byteLength":552,
		"target":34963
	},
	{
		"buffer":1,
		"byteOffset":552,
		"byteLength":2304,
		"target":34962,
		"byteStride":24
	},
	{
		"buffer":2,
		"byteOffset":0,
		"byteLength":3456,
		"target":34963
	},
	{
		"buffer":2,
		"byteOffset":3456,
		"byteLength":13824,
		"target":34962,
		"byteStride":24
	},
	{
		"buffer":3,
		"byteOffset":0,
		"byteLength":16392,
		"target":34963
	},
	{
		"buffer":3,
		"byteOffset":16392,
		"byteLength":65424,
		"target":34962,
		"byteStride":24
	},
	{
		"buffer":4,
		"byteOffset":0,
		"byteLength":8020
	}],
	"buffers":[{
		"uri":"data:application/octet-stream;base64,",
		"byteLength":182736
	},
	{
		"uri":"data:application/octet-stream;base64,",
		"byteLength":2856
	},
	{
		"uri":"data:application/octet-stream;base64,",
		"byteLength":17280
	},
	{
		"uri":"data:application/octet-stream;base64,",
		"byteLength":81816
	},
	{
		"uri":"data:application/octet-stream;base64,",
		"byteLength":8020
	}],
	"materials":[{
		"pbrMetallicRoughness":{
			"baseColorFactor":[0.11,
			0.11,
			0.11,
			1.0],
			"metallicFactor":0.47000000000000005,
			"roughnessFactor":0.39
		},
		"emissiveFactor":[0.0,
		0.0,
		0.0],
		"alphaMode":"OPAQUE",
		"doubleSided":true,
		"name":"gl grey"
	},
	{
		"pbrMetallicRoughness":{
			"baseColorFactor":[0.36,
			0.0,
			0.008834356079214274,
			1.0],
			"metallicFactor":0.53,
			"roughnessFactor":0.37
		},
		"emissiveFactor":[0.0,
		0.0,
		0.0],
		"alphaMode":"OPAQUE",
		"doubleSided":true,
		"name":"gl red"
	}],
	"animations":[{
		"samplers":[{
			"input":12,
			"interpolation":"LINEAR",
			"output":13
		}],
		"channels":[{
			"sampler":0,
			"target":{
				"path":"rotation",
				"node":4
			}
		}]
	}],
	"extensionsUsed" :[
		"EXT_animation_map"
	  ],
	  "extensions" : {
		  "EXT_animation_map" : {
				"bindings": [
					{
						"semantic": "ALWAYS",
						"animations": [0]
					}
				]
		  }
	  }
}